HIERARCHY
ROOT Hips
{
	OFFSET 0.000000 0.000000 0.000000
	CHANNELS 6 Xposition Yposition Zposition Zrotation Xrotation Yrotation
	JOINT Spine
	{
		OFFSET 0.000000 0.059888 0.006665
		CHANNELS 6 Xposition Yposition Zposition Zrotation Xrotation Yrotation
		JOINT Chest
		{
			OFFSET 0.000000 0.125681 -0.015911
			CHANNELS 6 Xposition Yposition Zposition Zrotation Xrotation Yrotation
			JOINT UpperChest
			{
				OFFSET 0.000000 0.122768 -0.001652
				CHANNELS 6 Xposition Yposition Zposition Zrotation Xrotation Yrotation
				JOINT Neck
				{
					OFFSET 0.000000 0.155865 0.008735
					CHANNELS 6 Xposition Yposition Zposition Zrotation Xrotation Yrotation
					JOINT Head
					{
						OFFSET 0.000000 0.095969 -0.000410
						CHANNELS 6 Xposition Yposition Zposition Zrotation Xrotation Yrotation
						JOINT LeftEye
						{
							OFFSET 0.015267 0.059218 0.021494
							CHANNELS 6 Xposition Yposition Zposition Zrotation Xrotation Yrotation
							End Site
							{
								OFFSET 0.015267 0.059218 0.021494
							}
						}
						JOINT RightEye
						{
							OFFSET -0.015267 0.059218 0.021494
							CHANNELS 6 Xposition Yposition Zposition Zrotation Xrotation Yrotation
							End Site
							{
								OFFSET -0.015267 0.059218 0.021494
							}
						}
					}
				}
				JOINT LeftShoulder
				{
					OFFSET 0.025383 0.124268 0.007699
					CHANNELS 6 Xposition Yposition Zposition Zrotation Xrotation Yrotation
					JOINT LeftUpperArm
					{
						OFFSET 0.136062 0.000000 0.000000
						CHANNELS 6 Xposition Yposition Zposition Zrotation Xrotation Yrotation
						JOINT LeftLowerArm
						{
							OFFSET 0.225446 0.000000 0.000000
							CHANNELS 6 Xposition Yposition Zposition Zrotation Xrotation Yrotation
							JOINT LeftHand
							{
								OFFSET 0.256325 0.000003 0.000015
								CHANNELS 6 Xposition Yposition Zposition Zrotation Xrotation Yrotation
								JOINT LeftIndexProximal
								{
									OFFSET 0.074229 0.008101 0.022282
									CHANNELS 6 Xposition Yposition Zposition Zrotation Xrotation Yrotation
									JOINT LeftIndexIntermediate
									{
										OFFSET 0.037712 0.000000 -0.000001
										CHANNELS 6 Xposition Yposition Zposition Zrotation Xrotation Yrotation
										JOINT LeftIndexDistal
										{
											OFFSET 0.023218 0.000022 0.000021
											CHANNELS 6 Xposition Yposition Zposition Zrotation Xrotation Yrotation
											End Site
											{
												OFFSET 0.023218 0.000022 0.000021
											}
										}
									}
								}
								JOINT LeftLittleProximal
								{
									OFFSET 0.069261 0.008101 -0.033073
									CHANNELS 6 Xposition Yposition Zposition Zrotation Xrotation Yrotation
									JOINT LeftLittleIntermediate
									{
										OFFSET 0.035643 0.000000 0.000000
										CHANNELS 6 Xposition Yposition Zposition Zrotation Xrotation Yrotation
										JOINT LeftLittleDistal
										{
											OFFSET 0.020542 0.000000 0.000000
											CHANNELS 6 Xposition Yposition Zposition Zrotation Xrotation Yrotation
											End Site
											{
												OFFSET 0.020542 0.000000 0.000000
											}
										}
									}
								}
								JOINT LeftMiddleProximal
								{
									OFFSET 0.075240 0.008101 0.002320
									CHANNELS 6 Xposition Yposition Zposition Zrotation Xrotation Yrotation
									JOINT LeftMiddleIntermediate
									{
										OFFSET 0.042007 0.000000 0.000000
										CHANNELS 6 Xposition Yposition Zposition Zrotation Xrotation Yrotation
										JOINT LeftMiddleDistal
										{
											OFFSET 0.025915 0.000000 0.000000
											CHANNELS 6 Xposition Yposition Zposition Zrotation Xrotation Yrotation
											End Site
											{
												OFFSET 0.025915 0.000000 0.000000
											}
										}
									}
								}
								JOINT LeftRingProximal
								{
									OFFSET 0.074383 0.008101 -0.015403
									CHANNELS 6 Xposition Yposition Zposition Zrotation Xrotation Yrotation
									JOINT LeftRingIntermediate
									{
										OFFSET 0.038967 0.000000 0.000000
										CHANNELS 6 Xposition Yposition Zposition Zrotation Xrotation Yrotation
										JOINT LeftRingDistal
										{
											OFFSET 0.022488 0.000000 0.000000
											CHANNELS 6 Xposition Yposition Zposition Zrotation Xrotation Yrotation
											End Site
											{
												OFFSET 0.022488 0.000000 0.000000
											}
										}
									}
								}
								JOINT LeftThumbProximal
								{
									OFFSET 0.003995 -0.010985 0.018096
									CHANNELS 6 Xposition Yposition Zposition Zrotation Xrotation Yrotation
									JOINT LeftThumbIntermediate
									{
										OFFSET 0.052819 -0.000008 -0.000074
										CHANNELS 6 Xposition Yposition Zposition Zrotation Xrotation Yrotation
										JOINT LeftThumbDistal
										{
											OFFSET 0.032489 0.000042 -0.000035
											CHANNELS 6 Xposition Yposition Zposition Zrotation Xrotation Yrotation
											End Site
											{
												OFFSET 0.032489 0.000042 -0.000035
											}
										}
									}
								}
							}
						}
					}
				}
				JOINT RightShoulder
				{
					OFFSET -0.025383 0.124268 0.007699
					CHANNELS 6 Xposition Yposition Zposition Zrotation Xrotation Yrotation
					JOINT RightUpperArm
					{
						OFFSET -0.136062 0.000000 0.000000
						CHANNELS 6 Xposition Yposition Zposition Zrotation Xrotation Yrotation
						JOINT RightLowerArm
						{
							OFFSET -0.225446 0.000000 0.000000
							CHANNELS 6 Xposition Yposition Zposition Zrotation Xrotation Yrotation
							JOINT RightHand
							{
								OFFSET -0.256325 0.000003 0.000015
								CHANNELS 6 Xposition Yposition Zposition Zrotation Xrotation Yrotation
								JOINT RightIndexProximal
								{
									OFFSET -0.074229 0.008101 0.022282
									CHANNELS 6 Xposition Yposition Zposition Zrotation Xrotation Yrotation
									JOINT RightIndexIntermediate
									{
										OFFSET -0.037712 0.000000 -0.000001
										CHANNELS 6 Xposition Yposition Zposition Zrotation Xrotation Yrotation
										JOINT RightIndexDistal
										{
											OFFSET -0.023218 0.000022 0.000021
											CHANNELS 6 Xposition Yposition Zposition Zrotation Xrotation Yrotation
											End Site
											{
												OFFSET -0.023218 0.000022 0.000021
											}
										}
									}
								}
								JOINT RightLittleProximal
								{
									OFFSET -0.069261 0.008101 -0.033073
									CHANNELS 6 Xposition Yposition Zposition Zrotation Xrotation Yrotation
									JOINT RightLittleIntermediate
									{
										OFFSET -0.035643 0.000000 0.000000
										CHANNELS 6 Xposition Yposition Zposition Zrotation Xrotation Yrotation
										JOINT RightLittleDistal
										{
											OFFSET -0.020542 0.000000 0.000000
											CHANNELS 6 Xposition Yposition Zposition Zrotation Xrotation Yrotation
											End Site
											{
												OFFSET -0.020542 0.000000 0.000000
											}
										}
									}
								}
								JOINT RightMiddleProximal
								{
									OFFSET -0.075240 0.008101 0.002320
									CHANNELS 6 Xposition Yposition Zposition Zrotation Xrotation Yrotation
									JOINT RightMiddleIntermediate
									{
										OFFSET -0.042007 0.000000 0.000000
										CHANNELS 6 Xposition Yposition Zposition Zrotation Xrotation Yrotation
										JOINT RightMiddleDistal
										{
											OFFSET -0.025915 0.000000 0.000000
											CHANNELS 6 Xposition Yposition Zposition Zrotation Xrotation Yrotation
											End Site
											{
												OFFSET -0.025915 0.000000 0.000000
											}
										}
									}
								}
								JOINT RightRingProximal
								{
									OFFSET -0.074383 0.008101 -0.015403
									CHANNELS 6 Xposition Yposition Zposition Zrotation Xrotation Yrotation
									JOINT RightRingIntermediate
									{
										OFFSET -0.038967 0.000000 0.000000
										CHANNELS 6 Xposition Yposition Zposition Zrotation Xrotation Yrotation
										JOINT RightRingDistal
										{
											OFFSET -0.022488 0.000000 0.000000
											CHANNELS 6 Xposition Yposition Zposition Zrotation Xrotation Yrotation
											End Site
											{
												OFFSET -0.022488 0.000000 0.000000
											}
										}
									}
								}
								JOINT RightThumbProximal
								{
									OFFSET -0.003995 -0.010985 0.018096
									CHANNELS 6 Xposition Yposition Zposition Zrotation Xrotation Yrotation
									JOINT RightThumbIntermediate
									{
										OFFSET -0.052819 -0.000008 -0.000074
										CHANNELS 6 Xposition Yposition Zposition Zrotation Xrotation Yrotation
										JOINT RightThumbDistal
										{
											OFFSET -0.032489 0.000042 -0.000035
											CHANNELS 6 Xposition Yposition Zposition Zrotation Xrotation Yrotation
											End Site
											{
												OFFSET -0.032489 0.000042 -0.000035
											}
										}
									}
								}
							}
						}
					}
				}
			}
		}
	}
	JOINT LeftUpperLeg
	{
		OFFSET 0.087143 -0.045243 0.001548
		CHANNELS 6 Xposition Yposition Zposition Zrotation Xrotation Yrotation
		JOINT LeftLowerLeg
		{
			OFFSET 0.000000 -0.394432 -0.000001
			CHANNELS 6 Xposition Yposition Zposition Zrotation Xrotation Yrotation
			JOINT LeftFoot
			{
				OFFSET 0.000000 -0.466446 0.003058
				CHANNELS 6 Xposition Yposition Zposition Zrotation Xrotation Yrotation
				JOINT LeftToes
				{
					OFFSET 0.000000 -0.079218 0.140851
					CHANNELS 6 Xposition Yposition Zposition Zrotation Xrotation Yrotation
					End Site
					{
						OFFSET 0.000000 -0.079218 0.140851
					}
				}
			}
		}
	}
	JOINT RightUpperLeg
	{
		OFFSET -0.087143 -0.045243 0.001548
		CHANNELS 6 Xposition Yposition Zposition Zrotation Xrotation Yrotation
		JOINT RightLowerLeg
		{
			OFFSET 0.000000 -0.394432 -0.000001
			CHANNELS 6 Xposition Yposition Zposition Zrotation Xrotation Yrotation
			JOINT RightFoot
			{
				OFFSET 0.000000 -0.466446 0.003058
				CHANNELS 6 Xposition Yposition Zposition Zrotation Xrotation Yrotation
				JOINT RightToes
				{
					OFFSET 0.000000 -0.079218 0.140851
					CHANNELS 6 Xposition Yposition Zposition Zrotation Xrotation Yrotation
					End Site
					{
						OFFSET 0.000000 -0.079218 0.140851
					}
				}
			}
		}
	}
}
MOTION
Frames: 4
Frame Time: 0.041667
-0.024805 0.993789 0.069749 0.320497 12.355376 16.589143 0.000000 0.059888 0.006665 -0.004302 8.537363 4.338090 0.000000 0.125681 -0.015911 0.916131 1.447012 -0.062632 -0.000000 0.122768 -0.001652 -0.000042 -12.397809 -0.000118 -0.000000 0.155865 0.008735 -1.257432 17.940615 0.254107 -0.000000 0.095969 -0.000410 1.552090 5.087355 -1.376742 0.015267 0.059218 0.021494 -1.701127 3.586990 21.747937 -0.015267 0.059218 0.021494 1.701131 3.587002 -21.747923 0.025383 0.124268 0.007699 14.460065 -3.671014 17.773880 0.136062 0.000000 -0.000000 -80.729107 16.781280 11.813849 0.225446 -0.000000 -0.000000 -11.515526 -4.943152 -33.371252 0.256325 0.000003 0.000015 -0.251140 31.928973 -4.871090 0.074229 0.008101 0.022282 -0.012968 0.667619 1.112105 0.037712 0.000000 -0.000001 -1.679194 1.282861 0.674522 0.023218 0.000022 0.000021 -0.334986 1.286453 -0.710998 0.069261 0.008101 -0.033073 0.000001 -0.000043 0.000002 0.035643 -0.000000 0.000000 0.000004 0.000000 0.000001 0.020542 -0.000000 -0.000000 0.890205 -0.008562 -1.101172 0.075240 0.008101 0.002320 -0.000003 -0.000008 -0.000006 0.042007 0.000000 0.000000 0.000002 0.000039 -0.000012 0.025915 -0.000000 -0.000000 0.000002 0.000039 -0.000011 0.074383 0.008101 -0.015403 -0.000004 0.000013 0.000005 0.038967 0.000000 -0.000000 0.000004 0.000000 0.000001 0.022488 0.000000 -0.000000 -0.712571 -0.008159 1.310730 0.003995 -0.010985 0.018096 86.199487 49.487524 -89.646574 0.052819 -0.000008 -0.000074 -2.573038 -0.739915 0.463021 0.032489 0.000042 -0.000035 4.590283 -0.705069 -0.717111 -0.025383 0.124268 0.007699 5.833208 -3.670487 -17.756658 -0.136062 -0.000000 0.000000 61.799258 22.449724 0.562398 -0.225446 -0.000000 0.000000 6.981752 12.390146 21.738677 -0.256325 0.000003 0.000015 8.536131 30.046750 -2.420048 -0.074229 0.008101 0.022282 0.012969 0.667618 -1.112106 -0.037712 0.000000 -0.000001 1.679195 1.282861 -0.674523 -0.023218 0.000022 0.000021 0.334983 1.286451 0.710999 -0.069261 0.008101 -0.033073 -0.000005 -0.000040 -0.000001 -0.035643 -0.000000 0.000000 -0.000003 0.000000 0.000001 -0.020542 -0.000000 -0.000000 -0.890204 -0.008561 1.101172 -0.075240 0.008101 0.002320 0.000000 -0.000007 0.000006 -0.042007 -0.000000 -0.000000 -0.000003 0.000038 0.000013 -0.025915 -0.000000 0.000000 -0.000003 0.000040 0.000013 -0.074383 0.008101 -0.015403 0.000001 0.000015 -0.000005 -0.038967 0.000000 -0.000000 -0.000003 0.000002 0.000001 -0.022488 0.000000 0.000000 0.712572 -0.008157 -1.310730 -0.003995 -0.010985 0.018096 -86.199433 49.487517 89.646581 -0.052819 -0.000008 -0.000074 2.573043 -0.739910 -0.463022 -0.032489 0.000042 -0.000035 -4.590282 -0.705068 0.717109 0.087143 -0.045243 0.001548 -7.523793 -8.515094 -1.120362 -0.000000 -0.394432 -0.000001 -5.425680 42.986004 7.930432 0.000000 -0.466446 0.003058 0.249985 -6.128393 2.492375 0.000000 -0.079218 0.140851 -0.000001 0.248287 0.000001 -0.087143 -0.045243 0.001548 -5.141796 -11.194671 -1.000798 0.000000 -0.394432 -0.000001 -169.952483 141.380340 164.161889 -0.000000 -0.466446 0.003058 1.182572 -6.225734 11.449045 -0.000000 -0.079218 0.140851 0.000001 0.248283 -0.000000 
-0.018898 0.993594 0.067851 -0.566583 12.054247 16.225312 -0.000000 0.059888 0.006665 -0.042606 8.437313 2.599886 -0.000000 0.125681 -0.015911 0.519745 1.378240 -0.116283 -0.000000 0.122768 -0.001652 -0.000040 -12.397808 -0.000118 0.000000 0.155865 0.008735 -0.598911 17.688827 0.224743 0.000000 0.095969 -0.000410 1.099912 5.078175 0.821896 0.015267 0.059218 0.021494 -1.701131 3.586987 21.747939 -0.015267 0.059218 0.021494 1.701133 3.586999 -21.747923 0.025383 0.124268 0.007699 13.524857 -3.582562 17.019976 0.136062 0.000000 -0.000000 -79.153020 19.158238 8.557452 0.225446 0.000000 0.000000 -11.184904 -8.689246 -32.411778 0.256325 0.000003 0.000015 -2.294091 33.134614 -1.653258 0.074229 0.008101 0.022282 -0.012967 0.667620 1.112104 0.037712 0.000000 -0.000001 -1.679198 1.282859 0.674522 0.023218 0.000022 0.000021 -0.334985 1.286453 -0.710999 0.069261 0.008101 -0.033073 0.000004 -0.000042 0.000000 0.035643 0.000000 0.000000 0.000003 -0.000001 0.000000 0.020542 -0.000000 -0.000000 0.890204 -0.008562 -1.101173 0.075240 0.008101 0.002320 -0.000002 -0.000007 -0.000007 0.042007 -0.000000 -0.000000 0.000001 0.000038 -0.000013 0.025915 -0.000000 -0.000000 0.000002 0.000038 -0.000013 0.074383 0.008101 -0.015403 -0.000003 0.000015 0.000004 0.038967 0.000000 -0.000000 0.000004 -0.000001 0.000000 0.022488 0.000000 -0.000000 -0.712570 -0.008159 1.310729 0.003995 -0.010985 0.018096 86.199487 49.487514 -89.646574 0.052819 -0.000008 -0.000074 -2.573041 -0.739917 0.463020 0.032489 0.000042 -0.000035 4.590281 -0.705068 -0.717110 -0.025383 0.124268 0.007699 5.504846 -3.570469 -17.375914 -0.136062 -0.000000 -0.000000 63.447164 21.289462 -0.925715 -0.225446 -0.000000 0.000000 6.753230 12.396727 21.473703 -0.256325 0.000003 0.000015 10.554251 30.908317 -3.481664 -0.074229 0.008101 0.022282 0.012969 0.667615 -1.112106 -0.037712 0.000000 -0.000001 1.679195 1.282863 -0.674522 -0.023218 0.000022 0.000021 0.334983 1.286452 0.710999 -0.069261 0.008101 -0.033073 -0.000005 -0.000042 -0.000001 -0.035643 -0.000000 -0.000000 -0.000003 0.000001 -0.000000 -0.020542 -0.000000 0.000000 -0.890204 -0.008562 1.101172 -0.075240 0.008101 0.002320 0.000000 -0.000010 0.000006 -0.042007 0.000000 0.000000 -0.000003 0.000038 0.000012 -0.025915 -0.000000 -0.000000 -0.000003 0.000040 0.000013 -0.074383 0.008101 -0.015403 0.000000 0.000013 -0.000004 -0.038967 0.000000 -0.000000 -0.000003 0.000001 0.000000 -0.022488 -0.000000 0.000000 0.712572 -0.008158 -1.310729 -0.003995 -0.010985 0.018096 -86.199433 49.487517 89.646581 -0.052819 -0.000008 -0.000074 2.573040 -0.739910 -0.463019 -0.032489 0.000042 -0.000035 -4.590283 -0.705066 0.717111 0.087143 -0.045243 0.001548 -6.950415 -7.205902 -0.876072 -0.000000 -0.394432 -0.000001 -3.915037 40.385140 6.029467 -0.000000 -0.466446 0.003058 0.600912 -7.358118 4.930991 0.000000 -0.079218 0.140851 0.000000 0.248283 -0.000003 -0.087143 -0.045243 0.001548 -3.807962 -12.754890 -0.841876 0.000000 -0.394432 -0.000001 -171.201246 138.836490 166.766691 -0.000000 -0.466446 0.003058 0.950982 -6.576184 8.737070 0.000000 -0.079218 0.140851 -0.000000 0.248282 -0.000000 
-0.013719 0.995240 0.067364 -1.267749 11.872676 15.895751 -0.000000 0.059888 0.006665 -0.225847 8.392429 0.937110 0.000000 0.125681 -0.015911 -0.005232 1.355903 -0.196641 -0.000000 0.122768 -0.001652 -0.000040 -12.397808 -0.000121 -0.000000 0.155865 0.008735 0.035349 17.456218 0.199130 -0.000000 0.095969 -0.000410 0.448182 4.968725 3.088478 0.015267 0.059218 0.021494 -1.701134 3.586995 21.747934 -0.015267 0.059218 0.021494 1.701134 3.587004 -21.747923 0.025383 0.124268 0.007699 12.820666 -3.538731 16.407050 0.136062 -0.000000 -0.000000 -77.272239 21.393551 5.320081 0.225446 0.000000 0.000000 -10.716023 -12.497534 -31.737539 0.256325 0.000003 0.000015 -4.059147 34.196756 1.818668 0.074229 0.008101 0.022282 -0.012964 0.667618 1.112107 0.037712 -0.000000 -0.000001 -1.679192 1.282861 0.674522 0.023218 0.000022 0.000021 -0.334983 1.286453 -0.710998 0.069261 0.008101 -0.033073 0.000007 -0.000044 0.000002 0.035643 0.000000 0.000000 0.000005 0.000000 -0.000001 0.020542 0.000000 0.000000 0.890203 -0.008560 -1.101173 0.075240 0.008101 0.002320 0.000003 -0.000008 -0.000006 0.042007 0.000000 0.000000 0.000002 0.000039 -0.000014 0.025915 -0.000000 -0.000000 0.000001 0.000039 -0.000012 0.074383 0.008101 -0.015403 0.000004 0.000015 0.000004 0.038967 0.000000 0.000000 0.000005 0.000003 -0.000000 0.022488 0.000000 -0.000000 -0.712575 -0.008159 1.310729 0.003995 -0.010985 0.018096 86.199494 49.487521 -89.646574 0.052819 -0.000008 -0.000074 -2.573032 -0.739916 0.463019 0.032489 0.000042 -0.000035 4.590286 -0.705066 -0.717108 -0.025383 0.124268 0.007699 5.259350 -3.519671 -17.025660 -0.136062 -0.000000 -0.000000 64.584104 20.107904 -2.284059 -0.225446 -0.000000 -0.000000 6.643823 12.400345 20.871407 -0.256325 0.000003 0.000015 11.639167 31.617998 -3.746507 -0.074229 0.008101 0.022282 0.012969 0.667619 -1.112105 -0.037712 0.000000 -0.000001 1.679195 1.282859 -0.674522 -0.023218 0.000022 0.000021 0.334983 1.286452 0.710999 -0.069261 0.008101 -0.033073 -0.000005 -0.000040 -0.000001 -0.035643 -0.000000 0.000000 -0.000003 -0.000002 0.000000 -0.020542 -0.000000 0.000000 -0.890203 -0.008559 1.101172 -0.075240 0.008101 0.002320 0.000000 -0.000008 0.000006 -0.042007 -0.000000 0.000000 -0.000003 0.000039 0.000013 -0.025915 -0.000000 0.000000 -0.000003 0.000041 0.000013 -0.074383 0.008101 -0.015403 0.000000 0.000015 -0.000004 -0.038967 0.000000 -0.000000 -0.000003 -0.000002 0.000000 -0.022488 0.000000 0.000000 0.712571 -0.008154 -1.310729 -0.003995 -0.010985 0.018096 -86.199433 49.487517 89.646588 -0.052819 -0.000008 -0.000074 2.573039 -0.739912 -0.463019 -0.032489 0.000042 -0.000035 -4.590281 -0.705069 0.717108 0.087143 -0.045243 0.001548 -6.255291 -6.128399 -0.670447 0.000000 -0.394432 -0.000001 -3.037657 38.397363 4.876078 0.000000 -0.466446 0.003058 0.992896 -7.208031 8.288595 -0.000000 -0.079218 0.140851 0.000002 0.248283 -0.000000 -0.087143 -0.045243 0.001548 -2.509269 -15.698797 -0.679335 0.000000 -0.394432 -0.000001 -172.689776 134.071409 169.876490 -0.000000 -0.466446 0.003058 0.456232 -4.792564 5.903144 -0.000000 -0.079218 0.140851 -0.000001 0.248285 -0.000001 
-0.009836 0.998085 0.068004 -1.893738 11.869010 15.592140 0.000000 0.059888 0.006665 -0.551673 8.398539 -0.557409 -0.000000 0.125681 -0.015911 -0.635151 1.371726 -0.295161 0.000000 0.122768 -0.001652 -0.000040 -12.397820 -0.000122 0.000000 0.155865 0.008735 0.675634 17.227301 0.173644 -0.000000 0.095969 -0.000410 0.075062 4.571993 4.634591 0.015267 0.059218 0.021494 -1.701132 3.586993 21.747934 -0.015267 0.059218 0.021494 1.701137 3.587004 -21.747918 0.025383 0.124268 0.007699 12.223962 -3.512515 15.854722 0.136062 -0.000000 -0.000000 -74.739994 23.645297 1.657775 0.225446 0.000000 -0.000000 -10.408798 -16.030558 -30.709828 0.256325 0.000003 0.000015 -4.675480 35.330052 4.588510 0.074229 0.008101 0.022282 -0.012967 0.667622 1.112105 0.037712 0.000000 -0.000001 -1.679196 1.282863 0.674522 0.023218 0.000022 0.000021 -0.334982 1.286454 -0.711000 0.069261 0.008101 -0.033073 0.000003 -0.000042 -0.000001 0.035643 -0.000000 0.000000 0.000004 0.000002 -0.000000 0.020542 -0.000000 -0.000000 0.890203 -0.008562 -1.101172 0.075240 0.008101 0.002320 -0.000000 -0.000007 -0.000007 0.042007 0.000000 0.000000 0.000002 0.000040 -0.000012 0.025915 0.000000 -0.000000 0.000001 0.000038 -0.000011 0.074383 0.008101 -0.015403 -0.000000 0.000014 0.000002 0.038967 0.000000 0.000000 0.000005 0.000001 -0.000000 0.022488 0.000000 0.000000 -0.712571 -0.008155 1.310729 0.003995 -0.010985 0.018096 86.199494 49.487521 -89.646574 0.052819 -0.000008 -0.000074 -2.573034 -0.739917 0.463019 0.032489 0.000042 -0.000035 4.590285 -0.705068 -0.717110 -0.025383 0.124268 0.007699 5.056051 -3.488674 -16.675077 -0.136062 0.000000 -0.000000 65.362998 19.154342 -3.333726 -0.225446 -0.000000 -0.000000 6.618506 12.418939 20.026343 -0.256325 0.000003 0.000015 11.704695 31.943825 -2.997069 -0.074229 0.008101 0.022282 0.012969 0.667619 -1.112105 -0.037712 0.000000 -0.000001 1.679195 1.282859 -0.674522 -0.023218 0.000022 0.000021 0.334983 1.286454 0.710999 -0.069261 0.008101 -0.033073 -0.000004 -0.000044 -0.000001 -0.035643 -0.000000 0.000000 -0.000003 -0.000002 0.000000 -0.020542 0.000000 0.000000 -0.890204 -0.008562 1.101172 -0.075240 0.008101 0.002320 0.000001 -0.000008 0.000006 -0.042007 -0.000000 -0.000000 -0.000003 0.000036 0.000013 -0.025915 -0.000000 0.000000 -0.000003 0.000037 0.000013 -0.074383 0.008101 -0.015403 0.000001 0.000011 -0.000004 -0.038967 0.000000 0.000000 -0.000003 -0.000002 0.000000 -0.022488 0.000000 0.000000 0.712572 -0.008162 -1.310729 -0.003995 -0.010985 0.018096 -86.199433 49.487524 89.646581 -0.052819 -0.000008 -0.000074 2.573042 -0.739910 -0.463020 -0.032489 0.000042 -0.000035 -4.590282 -0.705066 0.717109 0.087143 -0.045243 0.001548 -5.331534 -5.228127 -0.487230 -0.000000 -0.394432 -0.000001 -2.770122 36.687808 4.613544 0.000000 -0.466446 0.003058 1.203364 -6.563103 11.028181 -0.000000 -0.079218 0.140851 0.000001 0.248280 -0.000001 -0.087143 -0.045243 0.001548 -0.972503 -20.088006 -0.334026 0.000000 -0.394432 -0.000001 -174.571671 127.371007 173.181427 0.000000 -0.466446 0.003058 0.120858 -2.992799 2.644947 -0.000000 -0.079218 0.140851 0.000000 0.248287 -0.000000 
